<svg xmlns="http://www.w3.org/2000/svg" width="934.294" height="1080" viewBox="0 0 934.294 1080"><path d="M855.659,328.36H737.7A78.724,78.724,0,0,0,659.061,407V641.617L518.852,524.687c-29.007-23.35-75.817-21.524-106.579,4.162L275.233,643.272V408.67A78.724,78.724,0,0,0,196.6,330.035H78.635A78.709,78.709,0,0,0,0,408.66V908.9c0,1.6.06,3.2.16,4.774.08,1.334.191,2.658.331,3.841A78.157,78.157,0,0,0,18.335,960.22l75.606,90.551a78.116,78.116,0,0,0,53.319,27.923c2.4.221,4.794.321,7.171.321a78.2,78.2,0,0,0,50.391-18.385l50.03-43.149h0L463.877,837.2,729.6,1059.065a78.712,78.712,0,0,0,110.761-9.96l75.6-90.541a78.075,78.075,0,0,0,17.833-42.577c.14-1.274.251-2.558.341-3.972h0v-.351c.08-1.464.14-2.929.14-4.413V407a78.724,78.724,0,0,0-78.635-78.635ZM742.671,1043.408,479.524,823.691,659.472,668.5,892.941,863.43a57.853,57.853,0,0,1,20.842,47.442c-.06.963-.14,1.916-.261,2.989a57.977,57.977,0,0,1-13.2,31.625l-75.6,90.541a58.319,58.319,0,0,1-82.045,7.382Zm-593.6,14.975a57.884,57.884,0,0,1-39.5-20.682L33.972,947.151A58.041,58.041,0,0,1,20.752,915.4c-.11-.973-.191-1.956-.251-2.959-.07-1.173-.12-2.347-.12-3.541V408.66a58.312,58.312,0,0,1,58.254-58.244H196.6a58.319,58.319,0,0,1,58.254,58.244V990.55l-63.219,54.523a57.836,57.836,0,0,1-42.557,13.3ZM275.233,759.871V669.831L425.342,544.5c23.169-19.348,59.388-21.113,80.591-4.042L643.565,655.228,457.107,816.1,275.233,972.968V759.861ZM913.9,407V855.356c-.171-.181-.361-.361-.532-.542-.772-.833-1.575-1.645-2.387-2.447-.391-.391-.782-.792-1.184-1.174-1.224-1.163-2.487-2.307-3.8-3.4L679.442,658.628V407.005A58.312,58.312,0,0,1,737.7,348.761H855.659A58.31,58.31,0,0,1,913.9,407.005Z" transform="translate(0 0.985)"/><path d="M853.688,0H735.725A78.724,78.724,0,0,0,657.09,78.635V196.6a78.724,78.724,0,0,0,78.635,78.635H853.688A78.724,78.724,0,0,0,932.323,196.6V78.635A78.724,78.724,0,0,0,853.688,0Zm58.254,196.6a58.312,58.312,0,0,1-58.254,58.244H735.725A58.31,58.31,0,0,1,677.481,196.6V78.635a58.319,58.319,0,0,1,58.244-58.254H853.688a58.321,58.321,0,0,1,58.254,58.254V196.6Z" transform="translate(1.971)"/></svg>