<?xml version="1.0" encoding="UTF-8"?>
<svg  xmlns="http://www.w3.org/2000/svg" viewBox="0 0 3105 871.41">
    <g>
        <g>
            <g>
                <polygon points="457 494.09 137.19 684.37 137.19 871.41 457 682.75 457 494.09" fill="currentColor"/>
                <polygon points="319.81 313.53 0 503.82 0 690.86 319.81 502.2 319.81 313.53" fill="currentColor"/>
                <polygon points="446.8 0 126.07 190.28 126.07 377.32 446.8 188.66 446.8 0" fill="currentColor"/>
            </g>
            <g>
                <path d="m741.88,681.03V138.85h353.97v79.78h-254.83v148.71h231.59v77.45h-231.59v156.46h254.83v79.78h-353.97Z" fill="currentColor"/>
                <path d="m1187.24,681.03V123.36h99.14v557.67h-99.14Z" fill="currentColor" />
                <path d="m1572.18,690.33c-37.18,0-70.62-8.52-100.3-25.56-29.7-17.04-53.19-40.66-70.48-70.87-17.31-30.21-25.95-65.18-25.95-104.95s8.77-74.74,26.33-104.95c17.55-30.21,41.17-53.83,70.87-70.87,29.69-17.04,63.13-25.56,100.3-25.56s69.83,8.52,99.53,25.56c29.69,17.04,53.18,40.66,70.48,70.87,17.29,30.21,25.95,65.19,25.95,104.95s-8.65,74.74-25.95,104.95c-17.31,30.21-40.93,53.83-70.87,70.87-29.95,17.04-63.26,25.56-99.92,25.56Zm0-85.97c25.81,0,48.28-9.68,67.39-29.05,19.1-19.36,28.66-48.14,28.66-86.36s-9.56-67-28.66-86.36c-19.11-19.36-41.32-29.05-66.61-29.05s-48.93,9.68-67.77,29.05c-18.86,19.36-28.27,48.15-28.27,86.36s9.42,67,28.27,86.36c18.84,19.36,41.17,29.05,67,29.05Z" fill="currentColor"/>
                <path d="m1857.2,681.03V123.36h99.14v329.18l136.32-155.68h117.73l-157.23,175.05,182.79,209.13h-123.93l-155.68-192.86v192.86h-99.14Z" fill="currentColor"/>
                <path d="m2452.06,690.33c-38.73,0-73.07-8.27-103.01-24.79-29.95-16.52-53.44-39.76-70.48-69.71-17.04-29.94-25.56-64.54-25.56-103.79s8.39-75.13,25.17-106.11c16.77-30.98,40.01-55.11,69.71-72.42,29.69-17.29,64.67-25.95,104.95-25.95,37.69,0,70.99,8.27,99.92,24.79,28.91,16.53,51.51,39.11,67.77,67.77,16.27,28.66,24.4,60.55,24.4,95.66,0,5.69-.13,11.62-.39,17.81-.27,6.2-.65,12.66-1.16,19.36h-292.01c2.06,29.95,12.51,53.44,31.37,70.48,18.84,17.04,41.69,25.56,68.55,25.56,20.14,0,37.05-4.51,50.73-13.55,13.68-9.03,23.88-20.78,30.59-35.24h100.69c-7.24,24.28-19.24,46.35-36.02,66.22-16.79,19.88-37.44,35.51-61.96,46.86-24.53,11.35-52.28,17.04-83.26,17.04Zm.77-322.21c-24.28,0-45.7,6.85-64.29,20.53-18.59,13.69-30.47,34.47-35.63,62.35h191.31c-1.55-25.29-10.84-45.43-27.88-60.42-17.04-14.97-38.22-22.46-63.51-22.46Z" fill="currentColor"/>
                <path d="m2728.57,681.03v-384.18h87.52l7.75,65.06c11.87-22.72,29.05-40.78,51.51-54.22,22.46-13.42,48.92-20.14,79.39-20.14,47.5,0,84.43,14.98,110.76,44.92,26.33,29.95,39.5,73.85,39.5,131.67v216.87h-99.14v-207.58c0-33.04-6.72-58.34-20.14-75.91-13.43-17.55-34.35-26.33-62.74-26.33s-50.73,9.82-68.55,29.43c-17.81,19.63-26.72,46.99-26.72,82.1v198.28h-99.14Z" fill="currentColor"/>
            </g>
        </g>
    </g>
</svg>