<svg xmlns="http://www.w3.org/2000/svg" width="966.504" height="1080" viewBox="0 0 966.504 1080"><g transform="translate(0 312.143)"><path d="M847.69,287.71h-127.6a63.082,63.082,0,0,0-63.012,63V622.886L902.143,827.5c1.421,1.183,2.788,2.419,4.112,3.678.434.412.857.846,1.28,1.269.879.868,1.747,1.747,2.582,2.647.184.2.391.38.575.586V350.712A63.073,63.073,0,0,0,847.69,287.71Z" transform="translate(55.802 -287.71)"/><path d="M503.623,479.833c-22.935-18.465-62.1-16.556-87.174,4.372L254.08,619.777v327.9L450.809,777.991,652.5,603.98,503.623,479.833Z" transform="translate(21.577 -272.471)"/><path d="M904.944,817.355,652.406,606.5,457.76,774.37,742.4,1012.034a63.083,63.083,0,0,0,88.747-7.985l81.771-97.936A62.644,62.644,0,0,0,927.2,871.9c.13-1.161.217-2.192.282-3.233a62.592,62.592,0,0,0-22.545-51.317Z" transform="translate(38.875 -260.637)"/><path d="M190.6,289.37H63.012A63.082,63.082,0,0,0,0,352.371V893.466c0,1.291.054,2.56.13,3.83.065,1.085.163,2.148.271,3.2a62.7,62.7,0,0,0,14.3,34.349l81.782,97.947a63.023,63.023,0,0,0,88.758,7.985L253.623,981.8V352.371a63.073,63.073,0,0,0-63-63Z" transform="translate(0 -287.569)"/></g><path d="M720.1,0H847.7a63.031,63.031,0,0,1,63,63V190.6a63.031,63.031,0,0,1-63,63H720.1a63.043,63.043,0,0,1-63.012-63.012V63.012A63.043,63.043,0,0,1,720.1,0Z" transform="translate(55.803)"/></svg>