<svg xmlns="http://www.w3.org/2000/svg" width="3616.338" height="766.297" viewBox="0 0 3616.338 766.297"><g transform="translate(6950.729 -14698)"><g transform="translate(-6950.729 14698)"><g transform="translate(0 221.476)"><path d="M792.324,287.71H701.789a44.759,44.759,0,0,0-44.709,44.7V525.529L830.96,670.711c1.008.839,1.978,1.717,2.917,2.61.308.292.608.6.908.9.624.616,1.239,1.239,1.832,1.878.131.139.277.269.408.416v-344.1A44.752,44.752,0,0,0,792.324,287.71Z" transform="translate(-151.267 -287.71)" fill="#0f172a"/><path d="M431.139,476.149c-16.273-13.1-44.063-11.747-61.853,3.1L254.08,575.444V808.1L393.666,687.7l143.1-123.466L431.139,476.149Z" transform="translate(-58.492 -329.02)" fill="#0f172a"/><path d="M775.052,756.109,595.868,606.5,457.76,725.609,659.722,894.24a44.759,44.759,0,0,0,62.969-5.666l58.019-69.489a44.449,44.449,0,0,0,10.13-24.271c.092-.824.154-1.555.2-2.294a44.411,44.411,0,0,0-16-36.411Z" transform="translate(-105.381 -361.099)" fill="#0f172a"/><path d="M135.237,289.37H44.709A44.759,44.759,0,0,0,0,334.072V718c0,.916.038,1.817.092,2.717.046.77.115,1.524.192,2.271a44.489,44.489,0,0,0,10.146,24.372l58.027,69.5a44.717,44.717,0,0,0,62.976,5.666l48.52-41.846v-446.6a44.752,44.752,0,0,0-44.7-44.7Z" transform="translate(0 -288.092)" fill="#0f172a"/></g><path d="M701.8,0h90.535a44.723,44.723,0,0,1,44.7,44.7v90.535a44.723,44.723,0,0,1-44.7,44.7H701.8a44.731,44.731,0,0,1-44.709-44.709V44.709A44.731,44.731,0,0,1,701.8,0Z" transform="translate(-151.269)" fill="#0f172a"/></g><path d="M153.144,0q-7.8,0-9.926-7.09L17.725-487.083l-.709-2.836q0-6.381,7.8-6.381h87.916q7.09,0,9.217,7.09L189.3-200.647q.709,2.836,2.127,2.836t2.127-2.836L258.785-488.5q2.127-7.8,9.217-7.8h85.789q7.8,0,9.926,7.09l70.9,288.563q.709,2.127,2.127,2.482t2.127-2.482L504.1-488.5q2.127-7.8,9.217-7.8h83.662q9.926,0,7.8,9.217L488.5-7.09Q486.374,0,478.575,0H394.2q-7.09,0-9.217-7.09l-72.318-307q-.709-2.836-2.127-2.836t-2.127,2.836L241.06-7.8Q239.642,0,231.843,0Zm559.4-405.548q-24.106,0-40.059-15.953t-15.952-40.059q0-24.815,15.6-40.413t40.413-15.6q24.815,0,40.413,15.6t15.6,40.413q0,24.106-15.953,40.059T712.545-405.548ZM670,0a8.2,8.2,0,0,1-6.026-2.482A8.2,8.2,0,0,1,661.5-8.508V-356.627a8.2,8.2,0,0,1,2.482-6.026A8.2,8.2,0,0,1,670-365.135h82.953a8.205,8.205,0,0,1,6.026,2.482,8.2,8.2,0,0,1,2.481,6.026V-8.508a8.2,8.2,0,0,1-2.481,6.027A8.2,8.2,0,0,1,752.958,0Zm573.581-370.1q55.3,0,86.5,33.323t31.2,93.588V-8.508a8.2,8.2,0,0,1-2.481,6.027A8.205,8.205,0,0,1,1352.772,0h-82.953a8.2,8.2,0,0,1-6.026-2.482,8.2,8.2,0,0,1-2.481-6.027v-212.7q0-29.069-14.889-46.085t-39.7-17.016q-24.815,0-40.413,17.016t-15.6,45.376V-8.508a8.205,8.205,0,0,1-2.482,6.027A8.205,8.205,0,0,1,1142.2,0h-82.244a8.2,8.2,0,0,1-6.026-2.482,8.2,8.2,0,0,1-2.481-6.027v-212.7q0-28.36-15.6-45.73t-40.413-17.371q-22.688,0-37.932,13.471t-18.08,37.577V-8.508a8.2,8.2,0,0,1-2.481,6.027A8.2,8.2,0,0,1,930.917,0H847.964a8.2,8.2,0,0,1-6.026-2.482,8.2,8.2,0,0,1-2.482-6.027v-347.41a8.2,8.2,0,0,1,2.482-6.026,8.2,8.2,0,0,1,6.026-2.481h82.953a8.2,8.2,0,0,1,6.026,2.481,8.2,8.2,0,0,1,2.481,6.026v27.651a2.858,2.858,0,0,0,1.418,2.836q1.418.709,2.836-1.418,29.069-43.249,90.043-43.249,35.45,0,62.038,14.889a99.8,99.8,0,0,1,40.767,42.54q2.127,4.254,4.963,0,15.6-29.069,42.186-43.249T1243.586-370.1Zm592.015,0q55.3,0,86.5,33.323t31.2,93.588V-8.508a8.2,8.2,0,0,1-2.481,6.027A8.205,8.205,0,0,1,1944.787,0h-82.953a8.2,8.2,0,0,1-6.026-2.482,8.2,8.2,0,0,1-2.482-6.027v-212.7q0-29.069-14.889-46.085t-39.7-17.016q-24.815,0-40.413,17.016t-15.6,45.376V-8.508a8.2,8.2,0,0,1-2.482,6.027A8.2,8.2,0,0,1,1734.214,0H1651.97a8.2,8.2,0,0,1-6.026-2.482,8.2,8.2,0,0,1-2.482-6.027v-212.7q0-28.36-15.6-45.73t-40.413-17.371q-22.688,0-37.932,13.471t-18.079,37.577V-8.508a8.2,8.2,0,0,1-2.482,6.027A8.2,8.2,0,0,1,1522.932,0h-82.953a8.2,8.2,0,0,1-6.026-2.482,8.2,8.2,0,0,1-2.481-6.027v-347.41a8.2,8.2,0,0,1,2.481-6.026,8.2,8.2,0,0,1,6.026-2.481h82.953a8.2,8.2,0,0,1,6.026,2.481,8.206,8.206,0,0,1,2.482,6.026v27.651a2.858,2.858,0,0,0,1.418,2.836q1.418.709,2.836-1.418,29.069-43.249,90.043-43.249,35.45,0,62.037,14.889a99.8,99.8,0,0,1,40.767,42.54q2.127,4.254,4.963,0,15.6-29.069,42.186-43.249T1835.6-370.1ZM2182.3,5.672q-59.556,0-102.1-31.2t-58.138-85.08q-9.926-33.323-9.926-72.318,0-41.831,9.926-75.154,16.307-52.466,58.847-82.244t102.1-29.778q58.138,0,99.26,29.424t58.138,81.889a242.77,242.77,0,0,1,11.344,74.445q0,38.286-9.926,71.609-15.6,55.3-57.783,86.853T2182.3,5.672Zm0-85.789q23.4,0,39.7-14.18t23.4-39a204.429,204.429,0,0,0,5.672-49.63q0-29.778-5.672-50.339-7.8-24.106-24.106-37.577t-39.7-13.471q-24.106,0-40.059,13.471t-23.042,37.577q-5.672,17.016-5.672,50.339,0,31.905,4.963,49.63,7.09,24.815,23.751,39T2182.3-80.117Zm556.565-191.43q13.471,36.868,13.471,87.916,0,48.921-12.053,85.789-16.307,48.212-52.112,75.863T2603.448,5.672q-51.757,0-81.535-39a2.946,2.946,0,0,0-2.836-1.063q-1.418.354-1.418,2.482v23.4a8.206,8.206,0,0,1-2.482,6.027A8.2,8.2,0,0,1,2509.151,0H2426.2a8.2,8.2,0,0,1-6.026-2.482,8.2,8.2,0,0,1-2.482-6.027V-487.792a8.2,8.2,0,0,1,2.482-6.026,8.2,8.2,0,0,1,6.026-2.482h82.953a8.2,8.2,0,0,1,6.026,2.482,8.206,8.206,0,0,1,2.482,6.026v151.726a2.857,2.857,0,0,0,1.418,2.836q1.418.709,2.836-1.418,27.651-35.45,78.7-35.45,51.757,0,86.853,26.587T2738.867-271.547ZM2633.935-110.6q14.889-26.942,14.889-70.9,0-48.921-17.016-75.154-17.016-27.651-50.339-27.651-31.2,0-47.5,27.651-15.6,26.942-15.6,74.445t14.18,71.609q17.016,30.487,49.63,30.487Q2616.919-80.117,2633.935-110.6Z" transform="translate(-6086.729 15365)" fill="#0f172a"/></g></svg>