<svg xmlns="http://www.w3.org/2000/svg" xmlns:xlink="http://www.w3.org/1999/xlink" width="4434.003" height="708.743" viewBox="0 0 4434.003 708.743"><defs><clipPath id="a"><rect width="4434.003" height="708.743"/></clipPath></defs><g transform="translate(0 0)"><g transform="translate(0 0)" clip-path="url(#a)"><path d="M208.19,463.919a85.384,85.384,0,0,1-50.6-16.134q-22.764-16.134-30.071-48.4l-87.991-308c-.982-3.882-1.73-7.319-2.2-10.265a50.729,50.729,0,0,1-.748-8.792q0-26.411,19.081-44.732Q74.707,9.28,102.592,9.257q48.4,0,58.668,44.007l45.457,215.592q4.419,16.134,13.212,16.134c6.828,0,11.738-4.887,14.661-14.661L297.654,84.06q8.8-24.938,27.873-36.665,19.046-11.75,39.588-11.738,20.519,0,40.336,11.738T431.125,84.06l61.591,186.27q4.419,14.661,13.211,14.661t13.188-16.134L564.6,53.264Q574.837,9.245,623.264,9.257q27.814,0,46.93,18.332,19.045,18.344,19.057,44.732a55.74,55.74,0,0,1-.725,8.792c-.514,2.946-1.239,6.384-2.2,10.265l-88.014,308q-8.8,32.269-31.521,48.4a85.486,85.486,0,0,1-50.6,16.134q-24.973,0-46.93-15.41-22.027-15.4-33.742-47.655L376.852,227.8q-4.384-16.134-13.188-16.134-10.277,0-14.685,16.134L290.311,400.854q-10.277,32.269-32.994,47.655-22.763,15.433-49.128,15.41" transform="translate(818.797 207.21)"/><path d="M142.119,139.816q-30.8,0-52.8-19.806t-22-50.6q0-27.849,22-48.4Q111.311.488,142.119.476q29.322,0,50.6,20.53,21.255,20.554,21.255,48.4,0,30.8-21.255,50.6-21.29,19.782-50.6,19.806m0,520.649q-27.884,0-46.93-16.134Q76.108,628.2,76.108,603.27V270.341q0-23.465,18.356-40.336,18.309-16.836,47.655-16.859,29.322,0,46.205,16.859,16.836,16.871,16.859,41.786V601.8q0,24.973-18.332,41.809t-44.732,16.859" transform="translate(1506.743 10.664)"/><path d="M144.3,463.919q-27.884,0-46.93-16.134Q78.292,431.65,78.292,406.724V73.794q0-23.465,18.356-40.336Q114.957,16.623,144.3,16.6q33.707,0,51.326,23.453,7.33,8.8,8.815,17.607,17.573-21.992,46.93-35.215Q280.7,9.257,317.361,9.257q99.718,0,143.736,65.987a172.729,172.729,0,0,1,64.537-49.128,194.07,194.07,0,0,1,79.2-16.859q82.11,0,129.8,48.4,47.631,48.4,47.655,154V409.646q0,23.5-18.333,38.863-18.344,15.433-46.181,15.41-27.885,0-46.205-16.134-18.379-16.134-18.333-41.061V227.8q0-54.261-19.08-77.749-19.046-23.43-54.249-23.453-35.215,0-56.47,21.255a106.7,106.7,0,0,0-28.6,50.6v211.2q0,23.5-18.333,38.863-18.379,15.433-46.2,15.41-27.884,0-46.205-16.134-18.344-16.134-18.332-41.061V227.8q0-54.261-19.057-77.749-19.081-23.43-54.272-23.453-33.777,0-55.745,21.255Q214.7,169.139,207.367,197V405.25q0,24.973-18.332,41.809T144.3,463.919" transform="translate(1752.42 207.21)"/><path d="M179.113,463.919q-27.885,0-46.93-16.134Q113.1,431.65,113.1,406.724V73.794q0-23.465,18.356-40.336Q149.767,16.623,179.113,16.6q33.707,0,51.326,23.453,7.331,8.8,8.815,17.607,17.572-21.992,46.93-35.215Q315.506,9.257,352.171,9.257q99.718,0,143.736,65.987a172.728,172.728,0,0,1,64.537-49.128,194.068,194.068,0,0,1,79.2-16.859q82.11,0,129.8,48.4,47.632,48.4,47.655,154V409.646q0,23.5-18.332,38.863-18.345,15.433-46.182,15.41-27.884,0-46.2-16.134Q688,431.65,688.047,406.724V227.8q0-54.261-19.081-77.749-19.046-23.43-54.249-23.453-35.215,0-56.47,21.255a106.7,106.7,0,0,0-28.6,50.6v211.2q0,23.5-18.332,38.863-18.379,15.433-46.205,15.41-27.885,0-46.205-16.134-18.344-16.134-18.332-41.061V227.8q0-54.261-19.057-77.749-19.081-23.43-54.272-23.453-33.742,0-55.722,21.255Q249.5,169.139,242.177,197V405.25q0,24.973-18.333,41.809t-44.732,16.859" transform="translate(2531.577 207.21)"/><path d="M378.386,463.941q-63.064,0-115.863-29.346a224.326,224.326,0,0,1-84.343-81.4q-31.567-52.051-31.521-118.061,0-67.449,31.521-118.061a222.575,222.575,0,0,1,84.343-79.222Q315.31,9.268,378.386,9.256q64.5,0,116.589,28.6a218.7,218.7,0,0,1,82.87,79.222q30.8,50.578,30.8,118.061,0,65.975-30.8,118.061a220.578,220.578,0,0,1-82.87,81.4q-52.051,29.322-116.589,29.346m0-118.81q45.422,0,74.055-31.544,28.621-31.5,28.621-78.45,0-48.4-28.621-77.749-28.585-29.287-74.055-29.322-43.983,0-74.078,29.322-30.059,29.358-30.047,77.749,0,46.965,30.047,78.45,30.059,31.567,74.078,31.544" transform="translate(3282.688 207.188)"/><path d="M407.776,660.487q-66.011,0-111.468-41.084-13.188,41.072-60.141,41.084-27.85,0-46.93-16.134-19.045-16.134-19.057-41.084V57.694q0-23.465,18.333-40.336Q206.821.487,236.167.475q27.849,0,45.48,16.883,17.608,16.871,17.607,41.786V251.283Q349.1,205.826,412.172,205.8q96.806,0,154.749,60.866,57.909,60.89,57.92,165.015T566.174,598.148q-58.68,62.363-158.4,62.339m-10.265-118.81q45.457,0,72.605-31.544,27.112-31.5,27.124-78.45,0-48.4-27.124-77.749-27.183-29.287-72.605-29.322-43.983,0-71.131,29.322-27.148,29.358-27.124,77.749,0,46.965,27.124,78.45,27.113,31.567,71.131,31.544" transform="translate(3809.162 10.641)"/><path d="M354.371,0C158.655,0,0,158.655,0,354.371S158.655,708.743,354.371,708.743c195.693,0,354.348-158.655,354.348-354.371S550.065,0,354.371,0M262.639,540.665,235.3,564.212a25.166,25.166,0,0,1-35.449-3.18l-32.666-39.12a25.1,25.1,0,0,1-5.706-13.726c-.047-.421-.094-.842-.117-1.286-.023-.491-.047-1.006-.047-1.52V289.226a25.2,25.2,0,0,1,25.16-25.16h50.975a25.2,25.2,0,0,1,25.184,25.16Zm87.383-75.387-78.591,67.788V402.073L336.3,347.918c10.008-8.348,25.651-9.119,34.817-1.73l59.487,49.6Zm197.33,40.944c-.023.421-.07.842-.117,1.309a25.1,25.1,0,0,1-5.706,13.656l-32.666,39.12a25.2,25.2,0,0,1-35.449,3.2L359.7,468.575l77.749-67.063,100.9,84.226a25.041,25.041,0,0,1,9,20.484m.047-23.968-.234-.234c-.327-.374-.678-.725-1.029-1.076l-.514-.491c-.514-.514-1.076-1.005-1.637-1.473L446.1,397.233V288.525a25.188,25.188,0,0,1,25.16-25.184h50.975a25.2,25.2,0,0,1,25.16,25.184Zm0-267.456a25.183,25.183,0,0,1-25.16,25.16H471.264A25.168,25.168,0,0,1,446.1,214.8V163.822a25.183,25.183,0,0,1,25.16-25.16h50.975a25.2,25.2,0,0,1,25.16,25.16Z" transform="translate(0 0.009)"/></g></g></svg>